<svg xmlns="http://www.w3.org/2000/svg" width="62.869" height="45.774" viewBox="0 0 62.869 45.774"><g transform="translate(0 0.442)"><path d="M1225.792,1716.029c.989,3.608,9.658,3.24,11.651-1.764a3.879,3.879,0,0,1,.2-.538c3.349-.834,5.285-2.229,6.367-4.225a9.43,9.43,0,0,0,1.027-3.884h0l3.242-.4a11.985,11.985,0,0,1,4.609.875c1.554.612,2.76,2.182,3.746,5.32a1.347,1.347,0,0,1-.324.456,3.549,3.549,0,0,0-.915,2.133q0,2.827,3.04,8.937a.525.525,0,0,0,.964-.338l-2.314-6.606a.52.52,0,0,1,.969-.339l2.345,6.661a.51.51,0,0,0,.914-.32l-2.337-6.671a.51.51,0,0,1,.925-.324l2.337,6.672a.51.51,0,0,0,.913-.32l-2.323-6.669a.52.52,0,0,1,.968-.339l2.314,6.606a.525.525,0,0,0,.964-.338q-1.438-6.67-3.2-8.88a3.549,3.549,0,0,0-2.046-1.1,1.364,1.364,0,0,1-.5-.136c-.974-3.065-2.219-5.009-3.8-6.175l11.615-1.43a1.956,1.956,0,0,0,1.673-1.908h0a1.478,1.478,0,0,0-1.695-1.494l-22.1,2.721-17.953,2.21a1.95,1.95,0,0,0-1.662,1.908h0a1.473,1.473,0,0,0,1.684,1.495l15.059-1.853a6.1,6.1,0,0,1-.636,2.167,5.043,5.043,0,0,1-2.565,2.166l0-.006-.994.342a1.82,1.82,0,0,1-1.89-.4C1231.4,1707.526,1224.348,1712.578,1225.792,1716.029Z" transform="translate(-1205.945 -1677.848)" fill="#f54748" fill-rule="evenodd"/><path d="M1054.807,1417.476l1.253-.154a1.726,1.726,0,0,1,1.919,1.5h0a1.727,1.727,0,0,1-1.5,1.919l-1.253.154a1.726,1.726,0,0,1-1.919-1.5h0A1.727,1.727,0,0,1,1054.807,1417.476Z" transform="translate(-1043.359 -1411.283)" fill="#f54748" fill-rule="evenodd"/><path d="M902.247,1561.728l1.253-.154a1.727,1.727,0,0,1,1.919,1.5h0a1.727,1.727,0,0,1-1.5,1.919l-1.253.154a1.726,1.726,0,0,1-1.919-1.5h0A1.727,1.727,0,0,1,902.247,1561.728Z" transform="translate(-899.238 -1547.556)" fill="#f54748" fill-rule="evenodd"/><path d="M875.171,1687.348l4.819-.593a1.727,1.727,0,0,1,1.919,1.5h0a1.727,1.727,0,0,1-1.5,1.919l-4.819.593a1.726,1.726,0,0,1-1.919-1.5h0A1.726,1.726,0,0,1,875.171,1687.348Z" transform="translate(-873.66 -1665.812)" fill="#f54748" fill-rule="evenodd"/><path d="M1124.376,1797.785l1.253-.155a1.728,1.728,0,0,1,1.92,1.5h0a1.727,1.727,0,0,1-1.5,1.92l-1.253.154a1.727,1.727,0,0,1-1.92-1.5h0A1.727,1.727,0,0,1,1124.376,1797.785Z" transform="translate(-1109.08 -1770.556)" fill="#f54748" fill-rule="evenodd"/><path d="M1043.158,1310.7a18.664,18.664,0,0,1,12.843,5.673,18.381,18.381,0,0,1,5.266,13.02l-20.883,2.571-21.342,2.627h0l6.662-.82a1.727,1.727,0,0,0,1.5-1.919h0a1.727,1.727,0,0,0-1.919-1.5l-3.046.375h0l-2.94.362-5.984.737a1.727,1.727,0,0,1-1.919-1.5h0a1.727,1.727,0,0,1,1.5-1.919l7.229-.89,1.694-.208h.008l1.078-.133a1.727,1.727,0,0,0,1.5-1.919h0a1.726,1.726,0,0,0-1.919-1.5l-.551.068-11.253,1.385a1.727,1.727,0,0,1-1.919-1.5h0a1.727,1.727,0,0,1,1.5-1.92l13.66-1.682,3.707-.456a1.727,1.727,0,0,0,1.5-1.919h0a1.729,1.729,0,0,0-1.647-1.511l.029-.025-8.18,1.007a1.726,1.726,0,0,1-1.919-1.5h0a1.728,1.728,0,0,1,1.5-1.92l15.457-1.9a23.02,23.02,0,0,1,2.456-.861,3.715,3.715,0,0,1,3.418-2.644C1041.873,1308.179,1042.734,1309.221,1043.158,1310.7Z" transform="translate(-1001.27 -1308.356)" fill="#f54748" fill-rule="evenodd"/></g><path d="M1523.1,1302.622a3.107,3.107,0,0,0-3.45-2.239,4.174,4.174,0,0,0-3.425,3.085,2.96,2.96,0,0,1,5.824.68q15.733,1.433,17.268,17.856l1.828-.225a19.44,19.44,0,0,0-5.24-13.457A18.6,18.6,0,0,0,1523.1,1302.622Z" transform="translate(-1480.686 -1300.357)" fill="#f54748" fill-rule="evenodd"/></svg>